<?xml version="1.0" encoding="UTF-8"?>
<svg width="21px" height="21px" viewBox="0 0 21 21" version="1.1" xmlns="http://www.w3.org/2000/svg" xmlns:xlink="http://www.w3.org/1999/xlink">
    <title>KoZycT.tif</title>
    <g id="页面-1" stroke="none" stroke-width="1" fill="none" fill-rule="evenodd">
        <g id="Play-Game" transform="translate(-1107.000000, -497.000000)" fill="#D3D3D3" fill-rule="nonzero">
            <g id="gamepage" transform="translate(0.000000, 79.000000)">
                <g id="编组" transform="translate(1107.761237, 418.000000)">
                    <path d="M10.338763,0 C10.338763,0.1 10.338763,0.1 10.338763,0 C11.038763,0.2 11.438763,0.7 11.438763,1.3 C11.438763,2.9 11.438763,4.5 11.438763,6.2 C11.438763,7.7 11.438763,9.3 11.438763,10.8 C11.438763,10.9 11.438763,10.9 11.438763,11 C11.538763,10.9 11.538763,10.9 11.638763,10.8 C12.338763,10.1 13.038763,9.4 13.738763,8.7 C14.438763,8 15.638763,8.3 15.838763,9.3 C15.938763,9.8 15.838763,10.2 15.438763,10.5 C14.338763,11.6 13.238763,12.7 12.038763,13.9 C11.738763,14.2 11.338763,14.6 11.038763,14.9 C10.438763,15.5 9.73876296,15.5 9.13876296,14.9 C7.63876296,13.4 6.23876296,12 4.73876296,10.5 C4.33876296,10.1 4.23876296,9.7 4.33876296,9.2 C4.43876296,8.7 4.73876296,8.4 5.23876296,8.3 C5.73876296,8.2 6.13876296,8.3 6.43876296,8.7 C7.13876296,9.4 7.83876296,10.1 8.53876296,10.8 C8.63876296,10.9 8.63876296,10.9 8.63876296,11 C8.63876296,11 8.63876296,11 8.73876296,11 C8.73876296,10.9 8.73876296,10.9 8.73876296,10.8 C8.73876296,7.8 8.73876296,4.7 8.73876296,1.7 C8.73876296,0.9 8.93876296,0.4 9.73876296,0.1 C10.038763,0 10.138763,0 10.338763,0 Z" id="路径"></path>
                    <path d="M20.238763,19.2 C20.138763,19.3 20.138763,19.5 20.038763,19.6 C19.838763,20 19.438763,20.2 18.938763,20.2 C18.938763,20.2 18.838763,20.2 18.838763,20.2 C13.038763,20.2 7.23876296,20.2 1.33876296,20.2 C0.638762959,20.2 0.138762959,19.8 0.0387629592,19.2 C-0.161237041,18.5 0.438762959,17.7 1.23876296,17.7 C1.33876296,17.7 1.43876296,17.7 1.53876296,17.7 C7.23876296,17.7 13.038763,17.7 18.738763,17.7 C19.638763,17.7 19.938763,17.9 20.238763,18.8 C20.238763,18.9 20.238763,19 20.238763,19.2 Z" id="路径"></path>
                </g>
            </g>
        </g>
    </g>
</svg>